<svg width="32" height="32" viewBox="0 0 32 32" fill="none" xmlns="http://www.w3.org/2000/svg">
<path fill-rule="evenodd" clip-rule="evenodd" d="M28.5942 18.7629V10.8912H28.5927C28.563 9.61656 27.9014 8.38497 26.7344 7.67866L26.7359 7.67718L17.9305 2.60394V2.60542C19.1689 3.31915 19.8602 4.61454 19.8616 5.94554V5.95296L20.2497 4.71099C22.7086 8.70251 22.0901 15.8769 16.8839 18.9113C16.3368 19.2303 18.6426 18.9454 18.1297 19.2378L18.4077 20.1919L19.8602 21.0287L19.8691 21.0124L19.872 25.8779L28.5942 18.7629Z" fill="url(#paint0_linear_823_11)"/>
<path fill-rule="evenodd" clip-rule="evenodd" d="M22.0127 16.5713C18.6737 17.923 13.2817 20.1429 11.7251 23.6269C10.4883 26.3943 11.9362 28.166 14.1751 29.4584C14.8129 29.8397 15.4209 29.9659 15.9576 29.9985V29.997C16.6013 29.9822 17.2332 29.8071 17.7921 29.4881L17.8115 29.4762L17.8219 29.4703L25.9702 24.7754L26.0817 24.7116C27.598 23.8376 28.5971 22.1119 28.5971 20.3639V15.9881V14.4449V13.1213V10.7843C28.5584 11.8126 28.2016 13.1184 26.3195 14.4019C25.0217 15.2907 23.4518 15.9896 22.0127 16.5713Z" fill="url(#paint1_linear_823_11)"/>
<path fill-rule="evenodd" clip-rule="evenodd" d="M3.40723 13.2356V21.1074H3.40871C3.43845 22.382 4.1 23.6136 5.26851 24.3199L5.26702 24.3214L14.0724 29.3946L14.0709 29.3931C12.8326 28.6794 12.1413 27.384 12.1398 26.053V26.0456L11.7518 27.2875C9.29285 23.296 9.9113 16.1217 15.119 13.0872C15.6661 12.7682 13.3603 13.0531 13.8732 12.7608L13.5952 11.8067L12.1427 10.9698L12.1338 10.9861L12.1309 6.12061L3.40723 13.2356Z" fill="url(#paint2_linear_823_11)"/>
<path fill-rule="evenodd" clip-rule="evenodd" d="M9.98864 15.4272C13.3276 14.0755 18.7197 11.8556 20.2762 8.3716C21.5131 5.60424 20.0651 3.83254 17.8262 2.54011C17.1885 2.15877 16.5804 2.03264 16.0437 2V2.00149C15.4 2.01632 14.7682 2.19142 14.2092 2.51044L14.1899 2.52231L14.1795 2.52825L6.0312 7.22311L5.9197 7.28691C4.40332 8.16089 3.4043 9.88659 3.4043 11.6346V16.0104V17.5536V18.8772V21.2142C3.44295 20.1844 3.79974 18.8801 5.68183 17.5966C6.97967 16.7093 8.54957 16.0104 9.98864 15.4272Z" fill="url(#paint3_linear_823_11)"/>
<path fill-rule="evenodd" clip-rule="evenodd" d="M9.98864 15.4272C13.3276 14.0755 18.7197 11.8556 20.2762 8.3716C21.5131 5.60424 20.0651 3.83254 17.8262 2.54011C17.1885 2.15877 16.5804 2.03264 16.0437 2V2.00149C15.4 2.01632 14.7682 2.19142 14.2092 2.51044L14.1899 2.52231L14.1795 2.52825L6.0312 7.22311L5.9197 7.28691C4.40332 8.16089 3.4043 9.88659 3.4043 11.6346V16.0104V17.5536V18.8772V21.2142C3.44295 20.1844 3.79974 18.8801 5.68183 17.5966C6.97967 16.7093 8.54957 16.0104 9.98864 15.4272Z" fill="url(#paint4_linear_823_11)"/>
<path fill-rule="evenodd" clip-rule="evenodd" d="M3.40141 13.841V11.6346C3.40141 9.88659 4.39895 8.16089 5.91681 7.28691L6.02831 7.22311L14.1766 2.52825L14.187 2.52231L14.2063 2.51044C14.7653 2.19142 15.3986 2.01632 16.0409 2.00149V2C16.579 2.03116 17.1856 2.15728 17.8233 2.54011C18.47 2.91404 19.0513 3.32803 19.5211 3.79396C14.8724 10.4742 3.59765 10.9564 3.39844 16.1781V16.0119V13.841H3.40141Z" fill="url(#paint5_linear_823_11)"/>
<path fill-rule="evenodd" clip-rule="evenodd" d="M19.631 3.90229C19.1449 4.59672 18.583 5.2318 17.966 5.81198C17.071 6.6548 16.0676 7.37743 15.021 8.01845C12.7984 9.3821 10.4183 10.3481 8.09914 11.5129C7.12539 12.0025 5.90783 12.6436 4.98016 13.479C4.11939 14.2535 3.65853 15.0325 3.40283 16.1766C3.60056 10.9564 14.8768 10.4727 19.5255 3.79248C19.5597 3.82958 19.5954 3.86519 19.631 3.90229Z" fill="url(#paint6_linear_823_11)"/>
<path fill-rule="evenodd" clip-rule="evenodd" d="M22.0127 16.5713C18.6737 17.923 13.2817 20.1429 11.7251 23.6269C10.4883 26.3943 11.9362 28.166 14.1751 29.4584C14.8129 29.8397 15.4209 29.9659 15.9576 29.9985V29.997C16.6013 29.9822 17.2332 29.8071 17.7921 29.4881L17.8115 29.4762L17.8219 29.4703L25.9702 24.7754L26.0817 24.7116C27.598 23.8376 28.5971 22.1119 28.5971 20.3639V15.9881V14.4449V13.1213V10.7843C28.5584 11.8126 28.2016 13.1184 26.3195 14.4019C25.0217 15.2907 23.4518 15.9896 22.0127 16.5713Z" fill="url(#paint7_linear_823_11)"/>
<path fill-rule="evenodd" clip-rule="evenodd" d="M28.5984 18.159V20.3655C28.5984 22.1134 27.6009 23.8391 26.083 24.7131L25.9715 24.7769L17.8232 29.4718L17.8128 29.4777L17.7935 29.4896C17.2345 29.8086 16.6012 29.9837 15.959 29.9985V30C15.4208 29.9674 14.8143 29.8427 14.1765 29.4599C13.5298 29.086 12.9485 28.672 12.4788 28.2061C17.1275 21.5258 28.4022 21.0436 28.6014 15.822V15.9881V18.159H28.5984Z" fill="url(#paint8_linear_823_11)"/>
<path fill-rule="evenodd" clip-rule="evenodd" d="M12.3704 28.0977C12.8565 27.4033 13.4184 26.7682 14.0354 26.188C14.9304 25.3452 15.9338 24.6226 16.9804 23.9801C19.203 22.6164 21.5831 21.6505 23.9023 20.4857C24.876 19.996 26.0936 19.355 27.0212 18.5196C27.882 17.745 28.3429 16.966 28.5986 15.822C28.4008 21.0421 17.1246 21.5258 12.4759 28.2061C12.4417 28.1705 12.406 28.1334 12.3704 28.0977Z" fill="url(#paint9_linear_823_11)"/>
<defs>
<linearGradient id="paint0_linear_823_11" x1="22.7067" y1="15.0189" x2="16.5499" y2="7.57163" gradientUnits="userSpaceOnUse">
<stop offset="0.1032" stop-color="#601BDA"/>
<stop offset="0.2653" stop-color="#7152E4"/>
<stop offset="0.4498" stop-color="#818AEF"/>
<stop offset="0.6086" stop-color="#8EB4F7"/>
<stop offset="0.7335" stop-color="#95CDFB"/>
<stop offset="0.8089" stop-color="#98D6FD"/>
</linearGradient>
<linearGradient id="paint1_linear_823_11" x1="28.6016" y1="17.6284" x2="12.8441" y2="24.9902" gradientUnits="userSpaceOnUse">
<stop stop-color="#A374B2"/>
<stop offset="1" stop-color="#5D449B"/>
</linearGradient>
<linearGradient id="paint2_linear_823_11" x1="9.46306" y1="17.0192" x2="15.3009" y2="27.1498" gradientUnits="userSpaceOnUse">
<stop offset="0.1255" stop-color="#601BDA"/>
<stop offset="0.1747" stop-color="#652BDD"/>
<stop offset="0.5731" stop-color="#89A5F4"/>
<stop offset="0.7486" stop-color="#98D6FD"/>
</linearGradient>
<linearGradient id="paint3_linear_823_11" x1="2.56981" y1="14.7569" x2="18.3274" y2="7.39508" gradientUnits="userSpaceOnUse">
<stop stop-color="#A374B2"/>
<stop offset="1" stop-color="#5D449B"/>
</linearGradient>
<linearGradient id="paint4_linear_823_11" x1="4.27465" y1="14.4812" x2="22.0993" y2="3.75081" gradientUnits="userSpaceOnUse">
<stop stop-color="#BD66EB"/>
<stop offset="0.9507" stop-color="#601CBD"/>
</linearGradient>
<linearGradient id="paint5_linear_823_11" x1="20.0405" y1="1.37041" x2="5.79494" y2="10.9973" gradientUnits="userSpaceOnUse">
<stop stop-color="#6D1CC1"/>
<stop offset="1" stop-color="#D169E6"/>
</linearGradient>
<linearGradient id="paint6_linear_823_11" x1="19.0518" y1="3.21364" x2="3.497" y2="16.2904" gradientUnits="userSpaceOnUse">
<stop stop-color="#924AE0"/>
<stop offset="1" stop-color="#D169E6"/>
</linearGradient>
<linearGradient id="paint7_linear_823_11" x1="12.3703" y1="27.4562" x2="29.055" y2="16.6005" gradientUnits="userSpaceOnUse">
<stop stop-color="#3F93D3"/>
<stop offset="0.9088" stop-color="#A6E2C8"/>
</linearGradient>
<linearGradient id="paint8_linear_823_11" x1="14.2755" y1="29.0703" x2="27.6232" y2="20.0501" gradientUnits="userSpaceOnUse">
<stop stop-color="#419BCD"/>
<stop offset="0.9307" stop-color="#C2E6CA"/>
</linearGradient>
<linearGradient id="paint9_linear_823_11" x1="11.7736" y1="27.0648" x2="26.1678" y2="18.7385" gradientUnits="userSpaceOnUse">
<stop stop-color="#3F93D3"/>
<stop offset="0.64" stop-color="#9CD8D8"/>
<stop offset="0.979" stop-color="#B0E6DE"/>
</linearGradient>
</defs>
</svg>
