<svg width="672" height="560" viewBox="0 0 672 560" fill="none" xmlns="http://www.w3.org/2000/svg">
<mask id="mask0_404_32" style="mask-type:alpha" maskUnits="userSpaceOnUse" x="0" y="0" width="480" height="560">
<rect x="480" y="560" width="480" height="560" transform="rotate(-180 480 560)" fill="#D9D9D9"/>
</mask>
<g mask="url(#mask0_404_32)">
<path d="M444.339 121.819C466.521 135.272 479.026 158.395 479.5 182.701L479.5 363.29C479.5 396.378 460.586 429.241 431.991 445.786C431.99 445.786 431.988 445.787 431.987 445.788L429.856 446.972L429.856 446.972L429.849 446.976L274.797 536.493H274.693H274.575L274.469 536.546L273.994 536.783L273.981 536.79L273.968 536.798C263.355 542.93 251.327 546.233 239.3 546.473C229.142 545.762 217.588 543.399 205.563 536.326C205.227 536.124 204.881 535.927 204.533 535.729C203.603 535.199 202.656 534.66 201.817 533.989L201.788 533.965L201.755 533.946L35.9028 438.189C35.9013 438.188 35.8998 438.187 35.8983 438.186C13.716 424.733 1.20947 401.371 0.737488 377.3L0.500031 377.273L0.500031 196.953C0.500031 163.866 19.4128 131.004 48.2445 114.459C48.2459 114.458 48.2473 114.457 48.2487 114.456L50.3814 113.272L50.3886 113.267L205.557 23.6833L205.614 23.6504L205.66 23.6039L205.841 23.4235L206.243 23.2222L206.257 23.2155L206.27 23.2079C216.884 17.0756 228.674 13.7724 240.938 13.5328C251.096 14.2437 262.651 16.6071 274.677 23.6813L274.692 23.6899L274.707 23.6975C276.1 24.3939 277.499 25.3259 278.931 26.2802L278.944 26.2891L278.958 26.2971L444.335 121.816C444.336 121.817 444.338 121.818 444.339 121.819Z" stroke="url(#paint0_linear_404_32)"/>
</g>
<mask id="mask1_404_32" style="mask-type:alpha" maskUnits="userSpaceOnUse" x="96" y="0" width="480" height="560">
<rect x="576" y="560" width="480" height="560" transform="rotate(-180 576 560)" fill="#D9D9D9"/>
</mask>
<g mask="url(#mask1_404_32)">
<path d="M540.339 121.819C562.521 135.272 575.026 158.395 575.5 182.701V363.29C575.5 396.378 556.586 429.241 527.991 445.786C527.99 445.786 527.988 445.787 527.987 445.788L525.856 446.972L525.856 446.972L525.849 446.976L370.797 536.493H370.693H370.575L370.469 536.546L369.994 536.783L369.981 536.79L369.968 536.798C359.355 542.93 347.327 546.233 335.3 546.473C325.142 545.762 313.588 543.399 301.563 536.326C301.227 536.124 300.881 535.927 300.533 535.729C299.603 535.199 298.656 534.66 297.817 533.989L297.788 533.965L297.755 533.946L131.903 438.189C131.901 438.188 131.9 438.187 131.898 438.186C109.716 424.733 97.2095 401.371 96.7375 377.3L96.5 377.273L96.5 196.953C96.5 163.866 115.413 131.004 144.244 114.459C144.246 114.458 144.247 114.457 144.249 114.456L146.381 113.272L146.389 113.267L301.557 23.6833L301.614 23.6504L301.66 23.6039L301.841 23.4235L302.243 23.2222L302.257 23.2155L302.27 23.2079C312.884 17.0756 324.674 13.7724 336.938 13.5328C347.096 14.2437 358.651 16.6071 370.677 23.6813L370.692 23.6899L370.707 23.6975C372.1 24.3939 373.499 25.3259 374.931 26.2802L374.944 26.2891L374.958 26.2971L540.335 121.816C540.336 121.817 540.338 121.818 540.339 121.819Z" stroke="url(#paint1_linear_404_32)"/>
</g>
<mask id="mask2_404_32" style="mask-type:alpha" maskUnits="userSpaceOnUse" x="192" y="0" width="480" height="560">
<rect x="672" y="560" width="480" height="560" transform="rotate(-180 672 560)" fill="#D9D9D9"/>
</mask>
<g mask="url(#mask2_404_32)">
<path d="M636.339 121.819C658.521 135.272 671.026 158.395 671.5 182.701V363.29C671.5 396.378 652.586 429.241 623.991 445.786C623.99 445.786 623.988 445.787 623.987 445.788L621.856 446.972L621.856 446.972L621.849 446.976L466.797 536.493H466.693H466.575L466.469 536.546L465.994 536.783L465.981 536.79L465.968 536.798C455.355 542.93 443.327 546.233 431.3 546.473C421.142 545.762 409.588 543.399 397.563 536.326C397.227 536.124 396.881 535.927 396.533 535.729C395.603 535.199 394.656 534.66 393.817 533.989L393.788 533.965L393.755 533.946L227.903 438.189C227.901 438.188 227.9 438.187 227.898 438.186C205.716 424.733 193.209 401.371 192.737 377.3L192.5 377.273L192.5 196.953C192.5 163.866 211.413 131.004 240.244 114.459C240.246 114.458 240.247 114.457 240.249 114.456L242.381 113.272L242.389 113.267L397.557 23.6833L397.614 23.6504L397.66 23.6039L397.841 23.4235L398.243 23.2222L398.257 23.2155L398.27 23.2079C408.884 17.0756 420.674 13.7724 432.938 13.5328C443.096 14.2437 454.651 16.6071 466.677 23.6813L466.692 23.6899L466.707 23.6975C468.1 24.3939 469.499 25.3259 470.931 26.2802L470.944 26.2891L470.958 26.2971L636.335 121.816C636.336 121.817 636.338 121.818 636.339 121.819Z" stroke="url(#paint2_linear_404_32)"/>
</g>
<defs>
<linearGradient id="paint0_linear_404_32" x1="480.065" y1="280.355" x2="0.134583" y2="280.355" gradientUnits="userSpaceOnUse">
<stop stop-color="#6D1CC1"/>
<stop offset="1" stop-color="#D169E6"/>
</linearGradient>
<linearGradient id="paint1_linear_404_32" x1="576.065" y1="280.355" x2="96.1346" y2="280.355" gradientUnits="userSpaceOnUse">
<stop stop-color="#6D1CC1"/>
<stop offset="1" stop-color="#D169E6"/>
</linearGradient>
<linearGradient id="paint2_linear_404_32" x1="672.065" y1="280.355" x2="192.135" y2="280.355" gradientUnits="userSpaceOnUse">
<stop stop-color="#6D1CC1"/>
<stop offset="1" stop-color="#D169E6"/>
</linearGradient>
</defs>
</svg>
