<svg width="488" height="543" viewBox="0 0 488 543" fill="none" xmlns="http://www.w3.org/2000/svg">
<path d="M451.748 110.592C474.303 124.271 487.019 147.782 487.5 172.496L487.5 356.095C487.5 389.738 468.269 423.151 439.195 439.973C439.194 439.974 439.192 439.975 439.191 439.975L437.024 441.179L437.024 441.179L437.017 441.183L279.379 532.193H279.271H279.153L279.048 532.246L278.564 532.488L278.551 532.494L278.538 532.502C267.747 538.737 255.517 542.096 243.288 542.339C232.96 541.617 221.212 539.214 208.985 532.022C208.643 531.817 208.292 531.617 207.938 531.416C206.993 530.877 206.029 530.328 205.176 529.645L205.146 529.622L205.113 529.603L36.4969 432.25C36.4953 432.249 36.4937 432.248 36.4921 432.247C13.9376 418.568 1.22131 394.813 0.741394 370.339L0.499969 370.312L0.499969 186.986C0.499969 153.345 19.7296 119.932 49.0444 103.11C49.0459 103.109 49.0473 103.108 49.0487 103.107L51.217 101.903L51.2242 101.899L208.979 10.8214L209.036 10.7885L209.082 10.7419L209.266 10.5577L209.677 10.3524L209.69 10.3456L209.703 10.3381C220.496 4.10266 232.485 0.743958 244.954 0.500549C255.282 1.22351 267.031 3.6264 279.259 10.8193L279.274 10.8279L279.289 10.8355C280.706 11.5438 282.129 12.4916 283.584 13.4618L283.597 13.4707L283.611 13.4788L451.745 110.59C451.746 110.591 451.747 110.592 451.748 110.592Z" stroke="url(#paint0_linear_404_42)"/>
<mask id="path-2-inside-1_404_42" fill="white">
<path fill-rule="evenodd" clip-rule="evenodd" d="M32 359.473L32 198.059C32 168.673 48.792 139.497 74.3999 124.804L76.2891 123.754L213.354 44.6218L213.564 44.4119L213.984 44.202C223.43 38.7446 233.925 35.806 244.84 35.5961C253.865 36.2258 264.15 38.3248 274.855 44.6218C276.115 45.2515 277.374 46.0911 278.634 46.9307L424.725 131.311C444.455 143.275 455.58 163.846 456 185.465C456 184.836 456 184.206 456 183.576L456 344.99C456 374.376 439.208 403.553 413.81 418.246L411.921 419.295L274.855 498.428H274.646L274.226 498.638C264.78 504.095 254.075 507.034 243.37 507.244C234.344 506.614 224.059 504.515 213.354 498.218C212.305 497.588 211.046 496.959 209.996 496.119L63.4852 411.529C43.7545 399.564 32.6296 378.784 32.2098 357.374C31.9999 358.214 32 358.844 32 359.473Z"/>
</mask>
<path d="M74.3999 124.804L73.9142 123.93L73.9022 123.937L74.3999 124.804ZM76.2891 123.754L76.7747 124.629L76.7819 124.625L76.7891 124.621L76.2891 123.754ZM213.354 44.6218L213.854 45.4878L213.968 45.4221L214.061 45.329L213.354 44.6218ZM213.564 44.4119L213.117 43.5175L212.972 43.59L212.857 43.7047L213.564 44.4119ZM213.984 44.202L214.431 45.0964L214.458 45.0829L214.484 45.0679L213.984 44.202ZM244.84 35.5961L244.909 34.5985L244.865 34.5954L244.82 34.5962L244.84 35.5961ZM274.855 44.6218L274.348 45.4837L274.378 45.501L274.408 45.5162L274.855 44.6218ZM278.634 46.9307L278.079 47.7628L278.106 47.7806L278.134 47.7967L278.634 46.9307ZM424.725 131.311L425.243 130.456L425.234 130.45L425.225 130.445L424.725 131.311ZM456 185.465L455 185.485L457 185.465H456ZM413.81 418.246L414.296 419.12L414.303 419.116L414.311 419.111L413.81 418.246ZM411.921 419.295L411.435 418.421L411.428 418.425L411.421 418.429L411.921 419.295ZM274.855 498.428V499.428H275.123L275.355 499.294L274.855 498.428ZM274.646 498.428V497.428H274.409L274.198 497.533L274.646 498.428ZM274.226 498.638L273.779 497.743L273.752 497.757L273.725 497.772L274.226 498.638ZM243.37 507.244L243.301 508.241L243.345 508.244L243.39 508.243L243.37 507.244ZM213.354 498.218L212.84 499.075L212.847 499.08L213.354 498.218ZM209.996 496.119L210.621 495.338L210.562 495.291L210.496 495.253L209.996 496.119ZM63.4852 411.529L62.9666 412.384L62.9758 412.389L62.9851 412.395L63.4852 411.529ZM32.2098 357.374L33.2097 357.355L31.2397 357.132L32.2098 357.374ZM33 359.473L33 198.059H31L31 359.473H33ZM33 198.059C33 169.03 49.6016 140.185 74.8976 125.671L73.9022 123.937C47.9823 138.809 31 168.317 31 198.059H33ZM74.8855 125.678L76.7747 124.629L75.8034 122.88L73.9143 123.93L74.8855 125.678ZM76.7891 124.621L213.854 45.4878L212.854 43.7558L75.7891 122.888L76.7891 124.621ZM214.061 45.329L214.271 45.1191L212.857 43.7047L212.647 43.9146L214.061 45.329ZM214.012 45.3063L214.431 45.0964L213.537 43.3076L213.117 43.5175L214.012 45.3063ZM214.484 45.0679C223.784 39.6946 234.114 36.8025 244.859 36.5959L244.82 34.5962C233.735 34.8094 223.075 37.7946 213.484 43.3361L214.484 45.0679ZM244.77 36.5936C253.687 37.2158 263.811 39.2855 274.348 45.4837L275.362 43.7599C264.49 37.3641 254.044 35.2358 244.909 34.5985L244.77 36.5936ZM274.408 45.5162C275.602 46.113 276.808 46.9155 278.079 47.7628L279.188 46.0987C277.94 45.2667 276.628 44.39 275.303 43.7274L274.408 45.5162ZM278.134 47.7967L424.225 132.177L425.225 130.445L279.134 46.0648L278.134 47.7967ZM424.206 132.166C443.636 143.948 454.587 164.198 455 185.485L457 185.446C456.574 163.493 445.275 142.603 425.243 130.456L424.206 132.166ZM457 185.465C457 185.464 457 185.463 457 185.462C457 185.46 457 185.459 457 185.458C457 185.457 457 185.456 457 185.454C457 185.453 457 185.452 457 185.451C457 185.449 457 185.448 457 185.447C457 185.446 457 185.445 457 185.443C457 185.442 457 185.441 457 185.44C457 185.438 457 185.437 457 185.436C457 185.435 457 185.433 457 185.432C457 185.431 457 185.43 457 185.429C457 185.427 457 185.426 457 185.425C457 185.424 457 185.422 457 185.421C457 185.42 457 185.419 457 185.417C457 185.416 457 185.415 457 185.414C457 185.413 457 185.411 457 185.41C457 185.409 457 185.408 457 185.406C457 185.405 457 185.404 457 185.403C457 185.401 457 185.4 457 185.399C457 185.398 457 185.397 457 185.395C457 185.394 457 185.393 457 185.392C457 185.39 457 185.389 457 185.388C457 185.387 457 185.385 457 185.384C457 185.383 457 185.382 457 185.381C457 185.379 457 185.378 457 185.377C457 185.376 457 185.374 457 185.373C457 185.372 457 185.371 457 185.369C457 185.368 457 185.367 457 185.366C457 185.365 457 185.363 457 185.362C457 185.361 457 185.36 457 185.358C457 185.357 457 185.356 457 185.355C457 185.353 457 185.352 457 185.351C457 185.35 457 185.349 457 185.347C457 185.346 457 185.345 457 185.344C457 185.342 457 185.341 457 185.34C457 185.339 457 185.338 457 185.336C457 185.335 457 185.334 457 185.333C457 185.331 457 185.33 457 185.329C457 185.328 457 185.326 457 185.325C457 185.324 457 185.323 457 185.322C457 185.32 457 185.319 457 185.318C457 185.317 457 185.315 457 185.314C457 185.313 457 185.312 457 185.31C457 185.309 457 185.308 457 185.307C457 185.306 457 185.304 457 185.303C457 185.302 457 185.301 457 185.299C457 185.298 457 185.297 457 185.296C457 185.294 457 185.293 457 185.292C457 185.291 457 185.29 457 185.288C457 185.287 457 185.286 457 185.285C457 185.283 457 185.282 457 185.281C457 185.28 457 185.278 457 185.277C457 185.276 457 185.275 457 185.274C457 185.272 457 185.271 457 185.27C457 185.269 457 185.267 457 185.266C457 185.265 457 185.264 457 185.262C457 185.261 457 185.26 457 185.259C457 185.258 457 185.256 457 185.255C457 185.254 457 185.253 457 185.251C457 185.25 457 185.249 457 185.248C457 185.246 457 185.245 457 185.244C457 185.243 457 185.242 457 185.24C457 185.239 457 185.238 457 185.237C457 185.235 457 185.234 457 185.233C457 185.232 457 185.231 457 185.229C457 185.228 457 185.227 457 185.226C457 185.224 457 185.223 457 185.222C457 185.221 457 185.219 457 185.218C457 185.217 457 185.216 457 185.215C457 185.213 457 185.212 457 185.211C457 185.21 457 185.208 457 185.207C457 185.206 457 185.205 457 185.203C457 185.202 457 185.201 457 185.2C457 185.199 457 185.197 457 185.196C457 185.195 457 185.194 457 185.192C457 185.191 457 185.19 457 185.189C457 185.187 457 185.186 457 185.185C457 185.184 457 185.183 457 185.181C457 185.18 457 185.179 457 185.178C457 185.176 457 185.175 457 185.174C457 185.173 457 185.171 457 185.17C457 185.169 457 185.168 457 185.167C457 185.165 457 185.164 457 185.163C457 185.162 457 185.16 457 185.159C457 185.158 457 185.157 457 185.155C457 185.154 457 185.153 457 185.152C457 185.151 457 185.149 457 185.148C457 185.147 457 185.146 457 185.144C457 185.143 457 185.142 457 185.141C457 185.139 457 185.138 457 185.137C457 185.136 457 185.135 457 185.133C457 185.132 457 185.131 457 185.13C457 185.128 457 185.127 457 185.126C457 185.125 457 185.123 457 185.122C457 185.121 457 185.12 457 185.119C457 185.117 457 185.116 457 185.115C457 185.114 457 185.112 457 185.111C457 185.11 457 185.109 457 185.108C457 185.106 457 185.105 457 185.104C457 185.103 457 185.101 457 185.1C457 185.099 457 185.098 457 185.096C457 185.095 457 185.094 457 185.093C457 185.092 457 185.09 457 185.089C457 185.088 457 185.087 457 185.085C457 185.084 457 185.083 457 185.082C457 185.08 457 185.079 457 185.078C457 185.077 457 185.076 457 185.074C457 185.073 457 185.072 457 185.071C457 185.069 457 185.068 457 185.067C457 185.066 457 185.064 457 185.063C457 185.062 457 185.061 457 185.06C457 185.058 457 185.057 457 185.056C457 185.055 457 185.053 457 185.052C457 185.051 457 185.05 457 185.048C457 185.047 457 185.046 457 185.045C457 185.044 457 185.042 457 185.041C457 185.04 457 185.039 457 185.037C457 185.036 457 185.035 457 185.034C457 185.032 457 185.031 457 185.03C457 185.029 457 185.028 457 185.026C457 185.025 457 185.024 457 185.023C457 185.021 457 185.02 457 185.019C457 185.018 457 185.016 457 185.015C457 185.014 457 185.013 457 185.012C457 185.01 457 185.009 457 185.008C457 185.007 457 185.005 457 185.004C457 185.003 457 185.002 457 185.001C457 184.999 457 184.998 457 184.997C457 184.996 457 184.994 457 184.993C457 184.992 457 184.991 457 184.989C457 184.988 457 184.987 457 184.986C457 184.985 457 184.983 457 184.982C457 184.981 457 184.98 457 184.978C457 184.977 457 184.976 457 184.975C457 184.973 457 184.972 457 184.971C457 184.97 457 184.969 457 184.967C457 184.966 457 184.965 457 184.964C457 184.962 457 184.961 457 184.96C457 184.959 457 184.957 457 184.956C457 184.955 457 184.954 457 184.953C457 184.951 457 184.95 457 184.949C457 184.948 457 184.946 457 184.945C457 184.944 457 184.943 457 184.941C457 184.94 457 184.939 457 184.938C457 184.937 457 184.935 457 184.934C457 184.933 457 184.932 457 184.93C457 184.929 457 184.928 457 184.927C457 184.925 457 184.924 457 184.923C457 184.922 457 184.921 457 184.919C457 184.918 457 184.917 457 184.916C457 184.914 457 184.913 457 184.912C457 184.911 457 184.909 457 184.908C457 184.907 457 184.906 457 184.905C457 184.903 457 184.902 457 184.901C457 184.9 457 184.898 457 184.897C457 184.896 457 184.895 457 184.894C457 184.892 457 184.891 457 184.89C457 184.889 457 184.887 457 184.886C457 184.885 457 184.884 457 184.882C457 184.881 457 184.88 457 184.879C457 184.878 457 184.876 457 184.875C457 184.874 457 184.873 457 184.871C457 184.87 457 184.869 457 184.868C457 184.866 457 184.865 457 184.864C457 184.863 457 184.862 457 184.86C457 184.859 457 184.858 457 184.857C457 184.855 457 184.854 457 184.853C457 184.852 457 184.85 457 184.849C457 184.848 457 184.847 457 184.846C457 184.844 457 184.843 457 184.842C457 184.841 457 184.839 457 184.838C457 184.837 457 184.836 457 184.834C457 184.833 457 184.832 457 184.831C457 184.83 457 184.828 457 184.827C457 184.826 457 184.825 457 184.823C457 184.822 457 184.821 457 184.82C457 184.818 457 184.817 457 184.816C457 184.815 457 184.814 457 184.812C457 184.811 457 184.81 457 184.809C457 184.807 457 184.806 457 184.805C457 184.804 457 184.802 457 184.801C457 184.8 457 184.799 457 184.798C457 184.796 457 184.795 457 184.794C457 184.793 457 184.791 457 184.79C457 184.789 457 184.788 457 184.787C457 184.785 457 184.784 457 184.783C457 184.782 457 184.78 457 184.779C457 184.778 457 184.777 457 184.775C457 184.774 457 184.773 457 184.772C457 184.771 457 184.769 457 184.768C457 184.767 457 184.766 457 184.764C457 184.763 457 184.762 457 184.761C457 184.759 457 184.758 457 184.757C457 184.756 457 184.755 457 184.753C457 184.752 457 184.751 457 184.75C457 184.748 457 184.747 457 184.746C457 184.745 457 184.743 457 184.742C457 184.741 457 184.74 457 184.739C457 184.737 457 184.736 457 184.735C457 184.734 457 184.732 457 184.731C457 184.73 457 184.729 457 184.727C457 184.726 457 184.725 457 184.724C457 184.723 457 184.721 457 184.72C457 184.719 457 184.718 457 184.716C457 184.715 457 184.714 457 184.713C457 184.711 457 184.71 457 184.709C457 184.708 457 184.707 457 184.705C457 184.704 457 184.703 457 184.702C457 184.7 457 184.699 457 184.698C457 184.697 457 184.695 457 184.694C457 184.693 457 184.692 457 184.691C457 184.689 457 184.688 457 184.687C457 184.686 457 184.684 457 184.683C457 184.682 457 184.681 457 184.68C457 184.678 457 184.677 457 184.676C457 184.675 457 184.673 457 184.672C457 184.671 457 184.67 457 184.668C457 184.667 457 184.666 457 184.665C457 184.664 457 184.662 457 184.661C457 184.66 457 184.659 457 184.657C457 184.656 457 184.655 457 184.654C457 184.652 457 184.651 457 184.65C457 184.649 457 184.648 457 184.646C457 184.645 457 184.644 457 184.643C457 184.641 457 184.64 457 184.639C457 184.638 457 184.636 457 184.635C457 184.634 457 184.633 457 184.632C457 184.63 457 184.629 457 184.628C457 184.627 457 184.625 457 184.624C457 184.623 457 184.622 457 184.62C457 184.619 457 184.618 457 184.617C457 184.616 457 184.614 457 184.613C457 184.612 457 184.611 457 184.609C457 184.608 457 184.607 457 184.606C457 184.604 457 184.603 457 184.602C457 184.601 457 184.6 457 184.598C457 184.597 457 184.596 457 184.595C457 184.593 457 184.592 457 184.591C457 184.59 457 184.588 457 184.587C457 184.586 457 184.585 457 184.584C457 184.582 457 184.581 457 184.58C457 184.579 457 184.577 457 184.576C457 184.575 457 184.574 457 184.573C457 184.571 457 184.57 457 184.569C457 184.568 457 184.566 457 184.565C457 184.564 457 184.563 457 184.561C457 184.56 457 184.559 457 184.558C457 184.557 457 184.555 457 184.554C457 184.553 457 184.552 457 184.55C457 184.549 457 184.548 457 184.547C457 184.545 457 184.544 457 184.543C457 184.542 457 184.541 457 184.539C457 184.538 457 184.537 457 184.536C457 184.534 457 184.533 457 184.532C457 184.531 457 184.529 457 184.528C457 184.527 457 184.526 457 184.525C457 184.523 457 184.522 457 184.521C457 184.52 457 184.518 457 184.517C457 184.516 457 184.515 457 184.513C457 184.512 457 184.511 457 184.51C457 184.509 457 184.507 457 184.506C457 184.505 457 184.504 457 184.502C457 184.501 457 184.5 457 184.499C457 184.497 457 184.496 457 184.495C457 184.494 457 184.493 457 184.491C457 184.49 457 184.489 457 184.488C457 184.486 457 184.485 457 184.484C457 184.483 457 184.481 457 184.48C457 184.479 457 184.478 457 184.477C457 184.475 457 184.474 457 184.473C457 184.472 457 184.47 457 184.469C457 184.468 457 184.467 457 184.465C457 184.464 457 184.463 457 184.462C457 184.461 457 184.459 457 184.458C457 184.457 457 184.456 457 184.454C457 184.453 457 184.452 457 184.451C457 184.45 457 184.448 457 184.447C457 184.446 457 184.445 457 184.443C457 184.442 457 184.441 457 184.44C457 184.438 457 184.437 457 184.436C457 184.435 457 184.434 457 184.432C457 184.431 457 184.43 457 184.429C457 184.427 457 184.426 457 184.425C457 184.424 457 184.422 457 184.421C457 184.42 457 184.419 457 184.418C457 184.416 457 184.415 457 184.414C457 184.413 457 184.411 457 184.41C457 184.409 457 184.408 457 184.406C457 184.405 457 184.404 457 184.403C457 184.402 457 184.4 457 184.399C457 184.398 457 184.397 457 184.395C457 184.394 457 184.393 457 184.392C457 184.39 457 184.389 457 184.388C457 184.387 457 184.386 457 184.384C457 184.383 457 184.382 457 184.381C457 184.379 457 184.378 457 184.377C457 184.376 457 184.374 457 184.373C457 184.372 457 184.371 457 184.37C457 184.368 457 184.367 457 184.366C457 184.365 457 184.363 457 184.362C457 184.361 457 184.36 457 184.358C457 184.357 457 184.356 457 184.355C457 184.354 457 184.352 457 184.351C457 184.35 457 184.349 457 184.347C457 184.346 457 184.345 457 184.344C457 184.343 457 184.341 457 184.34C457 184.339 457 184.338 457 184.336C457 184.335 457 184.334 457 184.333C457 184.331 457 184.33 457 184.329C457 184.328 457 184.327 457 184.325C457 184.324 457 184.323 457 184.322C457 184.32 457 184.319 457 184.318C457 184.317 457 184.315 457 184.314C457 184.313 457 184.312 457 184.311C457 184.309 457 184.308 457 184.307C457 184.306 457 184.304 457 184.303C457 184.302 457 184.301 457 184.299C457 184.298 457 184.297 457 184.296C457 184.295 457 184.293 457 184.292C457 184.291 457 184.29 457 184.288C457 184.287 457 184.286 457 184.285C457 184.283 457 184.282 457 184.281C457 184.28 457 184.279 457 184.277C457 184.276 457 184.275 457 184.274C457 184.272 457 184.271 457 184.27C457 184.269 457 184.267 457 184.266C457 184.265 457 184.264 457 184.263C457 184.261 457 184.26 457 184.259C457 184.258 457 184.256 457 184.255C457 184.254 457 184.253 457 184.251C457 184.25 457 184.249 457 184.248C457 184.247 457 184.245 457 184.244C457 184.243 457 184.242 457 184.24C457 184.239 457 184.238 457 184.237C457 184.236 457 184.234 457 184.233C457 184.232 457 184.231 457 184.229C457 184.228 457 184.227 457 184.226C457 184.224 457 184.223 457 184.222C457 184.221 457 184.22 457 184.218C457 184.217 457 184.216 457 184.215C457 184.213 457 184.212 457 184.211C457 184.21 457 184.208 457 184.207C457 184.206 457 184.205 457 184.204C457 184.202 457 184.201 457 184.2C457 184.199 457 184.197 457 184.196C457 184.195 457 184.194 457 184.192C457 184.191 457 184.19 457 184.189C457 184.188 457 184.186 457 184.185C457 184.184 457 184.183 457 184.181C457 184.18 457 184.179 457 184.178C457 184.176 457 184.175 457 184.174C457 184.173 457 184.172 457 184.17C457 184.169 457 184.168 457 184.167C457 184.165 457 184.164 457 184.163C457 184.162 457 184.16 457 184.159C457 184.158 457 184.157 457 184.156C457 184.154 457 184.153 457 184.152C457 184.151 457 184.149 457 184.148C457 184.147 457 184.146 457 184.144C457 184.143 457 184.142 457 184.141C457 184.14 457 184.138 457 184.137C457 184.136 457 184.135 457 184.133C457 184.132 457 184.131 457 184.13C457 184.129 457 184.127 457 184.126C457 184.125 457 184.124 457 184.122C457 184.121 457 184.12 457 184.119C457 184.117 457 184.116 457 184.115C457 184.114 457 184.113 457 184.111C457 184.11 457 184.109 457 184.108C457 184.106 457 184.105 457 184.104C457 184.103 457 184.101 457 184.1C457 184.099 457 184.098 457 184.097C457 184.095 457 184.094 457 184.093C457 184.092 457 184.09 457 184.089C457 184.088 457 184.087 457 184.085C457 184.084 457 184.083 457 184.082C457 184.081 457 184.079 457 184.078C457 184.077 457 184.076 457 184.074C457 184.073 457 184.072 457 184.071C457 184.069 457 184.068 457 184.067C457 184.066 457 184.065 457 184.063C457 184.062 457 184.061 457 184.06C457 184.058 457 184.057 457 184.056C457 184.055 457 184.053 457 184.052C457 184.051 457 184.05 457 184.049C457 184.047 457 184.046 457 184.045C457 184.044 457 184.042 457 184.041C457 184.04 457 184.039 457 184.037C457 184.036 457 184.035 457 184.034C457 184.033 457 184.031 457 184.03C457 184.029 457 184.028 457 184.026C457 184.025 457 184.024 457 184.023C457 184.022 457 184.02 457 184.019C457 184.018 457 184.017 457 184.015C457 184.014 457 184.013 457 184.012C457 184.01 457 184.009 457 184.008C457 184.007 457 184.006 457 184.004C457 184.003 457 184.002 457 184.001C457 183.999 457 183.998 457 183.997C457 183.996 457 183.994 457 183.993C457 183.992 457 183.991 457 183.99C457 183.988 457 183.987 457 183.986C457 183.985 457 183.983 457 183.982C457 183.981 457 183.98 457 183.978C457 183.977 457 183.976 457 183.975C457 183.974 457 183.972 457 183.971C457 183.97 457 183.969 457 183.967C457 183.966 457 183.965 457 183.964C457 183.962 457 183.961 457 183.96C457 183.959 457 183.958 457 183.956C457 183.955 457 183.954 457 183.953C457 183.951 457 183.95 457 183.949C457 183.948 457 183.946 457 183.945C457 183.944 457 183.943 457 183.942C457 183.94 457 183.939 457 183.938C457 183.937 457 183.935 457 183.934C457 183.933 457 183.932 457 183.93C457 183.929 457 183.928 457 183.927C457 183.926 457 183.924 457 183.923C457 183.922 457 183.921 457 183.919C457 183.918 457 183.917 457 183.916C457 183.915 457 183.913 457 183.912C457 183.911 457 183.91 457 183.908C457 183.907 457 183.906 457 183.905C457 183.903 457 183.902 457 183.901C457 183.9 457 183.899 457 183.897C457 183.896 457 183.895 457 183.894C457 183.892 457 183.891 457 183.89C457 183.889 457 183.887 457 183.886C457 183.885 457 183.884 457 183.883C457 183.881 457 183.88 457 183.879C457 183.878 457 183.876 457 183.875C457 183.874 457 183.873 457 183.871C457 183.87 457 183.869 457 183.868C457 183.867 457 183.865 457 183.864C457 183.863 457 183.862 457 183.86C457 183.859 457 183.858 457 183.857C457 183.855 457 183.854 457 183.853C457 183.852 457 183.851 457 183.849C457 183.848 457 183.847 457 183.846C457 183.844 457 183.843 457 183.842C457 183.841 457 183.839 457 183.838C457 183.837 457 183.836 457 183.835C457 183.833 457 183.832 457 183.831C457 183.83 457 183.828 457 183.827C457 183.826 457 183.825 457 183.823C457 183.822 457 183.821 457 183.82C457 183.819 457 183.817 457 183.816C457 183.815 457 183.814 457 183.812C457 183.811 457 183.81 457 183.809C457 183.808 457 183.806 457 183.805C457 183.804 457 183.803 457 183.801C457 183.8 457 183.799 457 183.798C457 183.796 457 183.795 457 183.794C457 183.793 457 183.792 457 183.79C457 183.789 457 183.788 457 183.787C457 183.785 457 183.784 457 183.783C457 183.782 457 183.78 457 183.779C457 183.778 457 183.777 457 183.776C457 183.774 457 183.773 457 183.772C457 183.771 457 183.769 457 183.768C457 183.767 457 183.766 457 183.764C457 183.763 457 183.762 457 183.761C457 183.76 457 183.758 457 183.757C457 183.756 457 183.755 457 183.753C457 183.752 457 183.751 457 183.75C457 183.748 457 183.747 457 183.746C457 183.745 457 183.744 457 183.742C457 183.741 457 183.74 457 183.739C457 183.737 457 183.736 457 183.735C457 183.734 457 183.732 457 183.731C457 183.73 457 183.729 457 183.728C457 183.726 457 183.725 457 183.724C457 183.723 457 183.721 457 183.72C457 183.719 457 183.718 457 183.716C457 183.715 457 183.714 457 183.713C457 183.712 457 183.71 457 183.709C457 183.708 457 183.707 457 183.705C457 183.704 457 183.703 457 183.702C457 183.701 457 183.699 457 183.698C457 183.697 457 183.696 457 183.694C457 183.693 457 183.692 457 183.691C457 183.689 457 183.688 457 183.687C457 183.686 457 183.685 457 183.683C457 183.682 457 183.681 457 183.68C457 183.678 457 183.677 457 183.676C457 183.675 457 183.673 457 183.672C457 183.671 457 183.67 457 183.669C457 183.667 457 183.666 457 183.665C457 183.664 457 183.662 457 183.661C457 183.66 457 183.659 457 183.657C457 183.656 457 183.655 457 183.654C457 183.653 457 183.651 457 183.65C457 183.649 457 183.648 457 183.646C457 183.645 457 183.644 457 183.643C457 183.641 457 183.64 457 183.639C457 183.638 457 183.637 457 183.635C457 183.634 457 183.633 457 183.632C457 183.63 457 183.629 457 183.628C457 183.627 457 183.625 457 183.624C457 183.623 457 183.622 457 183.621C457 183.619 457 183.618 457 183.617C457 183.616 457 183.614 457 183.613C457 183.612 457 183.611 457 183.609C457 183.608 457 183.607 457 183.606C457 183.605 457 183.603 457 183.602C457 183.601 457 183.6 457 183.598C457 183.597 457 183.596 457 183.595C457 183.593 457 183.592 457 183.591C457 183.59 457 183.589 457 183.587C457 183.586 457 183.585 457 183.584C457 183.582 457 183.581 457 183.58C457 183.579 457 183.578 457 183.576H455C455 183.578 455 183.579 455 183.58C455 183.581 455 183.582 455 183.584C455 183.585 455 183.586 455 183.587C455 183.589 455 183.59 455 183.591C455 183.592 455 183.593 455 183.595C455 183.596 455 183.597 455 183.598C455 183.6 455 183.601 455 183.602C455 183.603 455 183.605 455 183.606C455 183.607 455 183.608 455 183.609C455 183.611 455 183.612 455 183.613C455 183.614 455 183.616 455 183.617C455 183.618 455 183.619 455 183.621C455 183.622 455 183.623 455 183.624C455 183.625 455 183.627 455 183.628C455 183.629 455 183.63 455 183.632C455 183.633 455 183.634 455 183.635C455 183.637 455 183.638 455 183.639C455 183.64 455 183.641 455 183.643C455 183.644 455 183.645 455 183.646C455 183.648 455 183.649 455 183.65C455 183.651 455 183.653 455 183.654C455 183.655 455 183.656 455 183.657C455 183.659 455 183.66 455 183.661C455 183.662 455 183.664 455 183.665C455 183.666 455 183.667 455 183.669C455 183.67 455 183.671 455 183.672C455 183.673 455 183.675 455 183.676C455 183.677 455 183.678 455 183.68C455 183.681 455 183.682 455 183.683C455 183.685 455 183.686 455 183.687C455 183.688 455 183.689 455 183.691C455 183.692 455 183.693 455 183.694C455 183.696 455 183.697 455 183.698C455 183.699 455 183.701 455 183.702C455 183.703 455 183.704 455 183.705C455 183.707 455 183.708 455 183.709C455 183.71 455 183.712 455 183.713C455 183.714 455 183.715 455 183.716C455 183.718 455 183.719 455 183.72C455 183.721 455 183.723 455 183.724C455 183.725 455 183.726 455 183.728C455 183.729 455 183.73 455 183.731C455 183.732 455 183.734 455 183.735C455 183.736 455 183.737 455 183.739C455 183.74 455 183.741 455 183.742C455 183.744 455 183.745 455 183.746C455 183.747 455 183.748 455 183.75C455 183.751 455 183.752 455 183.753C455 183.755 455 183.756 455 183.757C455 183.758 455 183.76 455 183.761C455 183.762 455 183.763 455 183.764C455 183.766 455 183.767 455 183.768C455 183.769 455 183.771 455 183.772C455 183.773 455 183.774 455 183.776C455 183.777 455 183.778 455 183.779C455 183.78 455 183.782 455 183.783C455 183.784 455 183.785 455 183.787C455 183.788 455 183.789 455 183.79C455 183.792 455 183.793 455 183.794C455 183.795 455 183.796 455 183.798C455 183.799 455 183.8 455 183.801C455 183.803 455 183.804 455 183.805C455 183.806 455 183.808 455 183.809C455 183.81 455 183.811 455 183.812C455 183.814 455 183.815 455 183.816C455 183.817 455 183.819 455 183.82C455 183.821 455 183.822 455 183.823C455 183.825 455 183.826 455 183.827C455 183.828 455 183.83 455 183.831C455 183.832 455 183.833 455 183.835C455 183.836 455 183.837 455 183.838C455 183.839 455 183.841 455 183.842C455 183.843 455 183.844 455 183.846C455 183.847 455 183.848 455 183.849C455 183.851 455 183.852 455 183.853C455 183.854 455 183.855 455 183.857C455 183.858 455 183.859 455 183.86C455 183.862 455 183.863 455 183.864C455 183.865 455 183.867 455 183.868C455 183.869 455 183.87 455 183.871C455 183.873 455 183.874 455 183.875C455 183.876 455 183.878 455 183.879C455 183.88 455 183.881 455 183.883C455 183.884 455 183.885 455 183.886C455 183.887 455 183.889 455 183.89C455 183.891 455 183.892 455 183.894C455 183.895 455 183.896 455 183.897C455 183.899 455 183.9 455 183.901C455 183.902 455 183.903 455 183.905C455 183.906 455 183.907 455 183.908C455 183.91 455 183.911 455 183.912C455 183.913 455 183.915 455 183.916C455 183.917 455 183.918 455 183.919C455 183.921 455 183.922 455 183.923C455 183.924 455 183.926 455 183.927C455 183.928 455 183.929 455 183.93C455 183.932 455 183.933 455 183.934C455 183.935 455 183.937 455 183.938C455 183.939 455 183.94 455 183.942C455 183.943 455 183.944 455 183.945C455 183.946 455 183.948 455 183.949C455 183.95 455 183.951 455 183.953C455 183.954 455 183.955 455 183.956C455 183.958 455 183.959 455 183.96C455 183.961 455 183.962 455 183.964C455 183.965 455 183.966 455 183.967C455 183.969 455 183.97 455 183.971C455 183.972 455 183.974 455 183.975C455 183.976 455 183.977 455 183.978C455 183.98 455 183.981 455 183.982C455 183.983 455 183.985 455 183.986C455 183.987 455 183.988 455 183.99C455 183.991 455 183.992 455 183.993C455 183.994 455 183.996 455 183.997C455 183.998 455 183.999 455 184.001C455 184.002 455 184.003 455 184.004C455 184.006 455 184.007 455 184.008C455 184.009 455 184.01 455 184.012C455 184.013 455 184.014 455 184.015C455 184.017 455 184.018 455 184.019C455 184.02 455 184.022 455 184.023C455 184.024 455 184.025 455 184.026C455 184.028 455 184.029 455 184.03C455 184.031 455 184.033 455 184.034C455 184.035 455 184.036 455 184.037C455 184.039 455 184.04 455 184.041C455 184.042 455 184.044 455 184.045C455 184.046 455 184.047 455 184.049C455 184.05 455 184.051 455 184.052C455 184.053 455 184.055 455 184.056C455 184.057 455 184.058 455 184.06C455 184.061 455 184.062 455 184.063C455 184.065 455 184.066 455 184.067C455 184.068 455 184.069 455 184.071C455 184.072 455 184.073 455 184.074C455 184.076 455 184.077 455 184.078C455 184.079 455 184.081 455 184.082C455 184.083 455 184.084 455 184.085C455 184.087 455 184.088 455 184.089C455 184.09 455 184.092 455 184.093C455 184.094 455 184.095 455 184.097C455 184.098 455 184.099 455 184.1C455 184.101 455 184.103 455 184.104C455 184.105 455 184.106 455 184.108C455 184.109 455 184.11 455 184.111C455 184.113 455 184.114 455 184.115C455 184.116 455 184.117 455 184.119C455 184.12 455 184.121 455 184.122C455 184.124 455 184.125 455 184.126C455 184.127 455 184.129 455 184.13C455 184.131 455 184.132 455 184.133C455 184.135 455 184.136 455 184.137C455 184.138 455 184.14 455 184.141C455 184.142 455 184.143 455 184.144C455 184.146 455 184.147 455 184.148C455 184.149 455 184.151 455 184.152C455 184.153 455 184.154 455 184.156C455 184.157 455 184.158 455 184.159C455 184.16 455 184.162 455 184.163C455 184.164 455 184.165 455 184.167C455 184.168 455 184.169 455 184.17C455 184.172 455 184.173 455 184.174C455 184.175 455 184.176 455 184.178C455 184.179 455 184.18 455 184.181C455 184.183 455 184.184 455 184.185C455 184.186 455 184.188 455 184.189C455 184.19 455 184.191 455 184.192C455 184.194 455 184.195 455 184.196C455 184.197 455 184.199 455 184.2C455 184.201 455 184.202 455 184.204C455 184.205 455 184.206 455 184.207C455 184.208 455 184.21 455 184.211C455 184.212 455 184.213 455 184.215C455 184.216 455 184.217 455 184.218C455 184.22 455 184.221 455 184.222C455 184.223 455 184.224 455 184.226C455 184.227 455 184.228 455 184.229C455 184.231 455 184.232 455 184.233C455 184.234 455 184.236 455 184.237C455 184.238 455 184.239 455 184.24C455 184.242 455 184.243 455 184.244C455 184.245 455 184.247 455 184.248C455 184.249 455 184.25 455 184.251C455 184.253 455 184.254 455 184.255C455 184.256 455 184.258 455 184.259C455 184.26 455 184.261 455 184.263C455 184.264 455 184.265 455 184.266C455 184.267 455 184.269 455 184.27C455 184.271 455 184.272 455 184.274C455 184.275 455 184.276 455 184.277C455 184.279 455 184.28 455 184.281C455 184.282 455 184.283 455 184.285C455 184.286 455 184.287 455 184.288C455 184.29 455 184.291 455 184.292C455 184.293 455 184.295 455 184.296C455 184.297 455 184.298 455 184.299C455 184.301 455 184.302 455 184.303C455 184.304 455 184.306 455 184.307C455 184.308 455 184.309 455 184.311C455 184.312 455 184.313 455 184.314C455 184.315 455 184.317 455 184.318C455 184.319 455 184.32 455 184.322C455 184.323 455 184.324 455 184.325C455 184.327 455 184.328 455 184.329C455 184.33 455 184.331 455 184.333C455 184.334 455 184.335 455 184.336C455 184.338 455 184.339 455 184.34C455 184.341 455 184.343 455 184.344C455 184.345 455 184.346 455 184.347C455 184.349 455 184.35 455 184.351C455 184.352 455 184.354 455 184.355C455 184.356 455 184.357 455 184.358C455 184.36 455 184.361 455 184.362C455 184.363 455 184.365 455 184.366C455 184.367 455 184.368 455 184.37C455 184.371 455 184.372 455 184.373C455 184.374 455 184.376 455 184.377C455 184.378 455 184.379 455 184.381C455 184.382 455 184.383 455 184.384C455 184.386 455 184.387 455 184.388C455 184.389 455 184.39 455 184.392C455 184.393 455 184.394 455 184.395C455 184.397 455 184.398 455 184.399C455 184.4 455 184.402 455 184.403C455 184.404 455 184.405 455 184.406C455 184.408 455 184.409 455 184.41C455 184.411 455 184.413 455 184.414C455 184.415 455 184.416 455 184.418C455 184.419 455 184.42 455 184.421C455 184.422 455 184.424 455 184.425C455 184.426 455 184.427 455 184.429C455 184.43 455 184.431 455 184.432C455 184.434 455 184.435 455 184.436C455 184.437 455 184.438 455 184.44C455 184.441 455 184.442 455 184.443C455 184.445 455 184.446 455 184.447C455 184.448 455 184.45 455 184.451C455 184.452 455 184.453 455 184.454C455 184.456 455 184.457 455 184.458C455 184.459 455 184.461 455 184.462C455 184.463 455 184.464 455 184.465C455 184.467 455 184.468 455 184.469C455 184.47 455 184.472 455 184.473C455 184.474 455 184.475 455 184.477C455 184.478 455 184.479 455 184.48C455 184.481 455 184.483 455 184.484C455 184.485 455 184.486 455 184.488C455 184.489 455 184.49 455 184.491C455 184.493 455 184.494 455 184.495C455 184.496 455 184.497 455 184.499C455 184.5 455 184.501 455 184.502C455 184.504 455 184.505 455 184.506C455 184.507 455 184.509 455 184.51C455 184.511 455 184.512 455 184.513C455 184.515 455 184.516 455 184.517C455 184.518 455 184.52 455 184.521C455 184.522 455 184.523 455 184.525C455 184.526 455 184.527 455 184.528C455 184.529 455 184.531 455 184.532C455 184.533 455 184.534 455 184.536C455 184.537 455 184.538 455 184.539C455 184.541 455 184.542 455 184.543C455 184.544 455 184.545 455 184.547C455 184.548 455 184.549 455 184.55C455 184.552 455 184.553 455 184.554C455 184.555 455 184.557 455 184.558C455 184.559 455 184.56 455 184.561C455 184.563 455 184.564 455 184.565C455 184.566 455 184.568 455 184.569C455 184.57 455 184.571 455 184.573C455 184.574 455 184.575 455 184.576C455 184.577 455 184.579 455 184.58C455 184.581 455 184.582 455 184.584C455 184.585 455 184.586 455 184.587C455 184.588 455 184.59 455 184.591C455 184.592 455 184.593 455 184.595C455 184.596 455 184.597 455 184.598C455 184.6 455 184.601 455 184.602C455 184.603 455 184.604 455 184.606C455 184.607 455 184.608 455 184.609C455 184.611 455 184.612 455 184.613C455 184.614 455 184.616 455 184.617C455 184.618 455 184.619 455 184.62C455 184.622 455 184.623 455 184.624C455 184.625 455 184.627 455 184.628C455 184.629 455 184.63 455 184.632C455 184.633 455 184.634 455 184.635C455 184.636 455 184.638 455 184.639C455 184.64 455 184.641 455 184.643C455 184.644 455 184.645 455 184.646C455 184.648 455 184.649 455 184.65C455 184.651 455 184.652 455 184.654C455 184.655 455 184.656 455 184.657C455 184.659 455 184.66 455 184.661C455 184.662 455 184.664 455 184.665C455 184.666 455 184.667 455 184.668C455 184.67 455 184.671 455 184.672C455 184.673 455 184.675 455 184.676C455 184.677 455 184.678 455 184.68C455 184.681 455 184.682 455 184.683C455 184.684 455 184.686 455 184.687C455 184.688 455 184.689 455 184.691C455 184.692 455 184.693 455 184.694C455 184.695 455 184.697 455 184.698C455 184.699 455 184.7 455 184.702C455 184.703 455 184.704 455 184.705C455 184.707 455 184.708 455 184.709C455 184.71 455 184.711 455 184.713C455 184.714 455 184.715 455 184.716C455 184.718 455 184.719 455 184.72C455 184.721 455 184.723 455 184.724C455 184.725 455 184.726 455 184.727C455 184.729 455 184.73 455 184.731C455 184.732 455 184.734 455 184.735C455 184.736 455 184.737 455 184.739C455 184.74 455 184.741 455 184.742C455 184.743 455 184.745 455 184.746C455 184.747 455 184.748 455 184.75C455 184.751 455 184.752 455 184.753C455 184.755 455 184.756 455 184.757C455 184.758 455 184.759 455 184.761C455 184.762 455 184.763 455 184.764C455 184.766 455 184.767 455 184.768C455 184.769 455 184.771 455 184.772C455 184.773 455 184.774 455 184.775C455 184.777 455 184.778 455 184.779C455 184.78 455 184.782 455 184.783C455 184.784 455 184.785 455 184.787C455 184.788 455 184.789 455 184.79C455 184.791 455 184.793 455 184.794C455 184.795 455 184.796 455 184.798C455 184.799 455 184.8 455 184.801C455 184.802 455 184.804 455 184.805C455 184.806 455 184.807 455 184.809C455 184.81 455 184.811 455 184.812C455 184.814 455 184.815 455 184.816C455 184.817 455 184.818 455 184.82C455 184.821 455 184.822 455 184.823C455 184.825 455 184.826 455 184.827C455 184.828 455 184.83 455 184.831C455 184.832 455 184.833 455 184.834C455 184.836 455 184.837 455 184.838C455 184.839 455 184.841 455 184.842C455 184.843 455 184.844 455 184.846C455 184.847 455 184.848 455 184.849C455 184.85 455 184.852 455 184.853C455 184.854 455 184.855 455 184.857C455 184.858 455 184.859 455 184.86C455 184.862 455 184.863 455 184.864C455 184.865 455 184.866 455 184.868C455 184.869 455 184.87 455 184.871C455 184.873 455 184.874 455 184.875C455 184.876 455 184.878 455 184.879C455 184.88 455 184.881 455 184.882C455 184.884 455 184.885 455 184.886C455 184.887 455 184.889 455 184.89C455 184.891 455 184.892 455 184.894C455 184.895 455 184.896 455 184.897C455 184.898 455 184.9 455 184.901C455 184.902 455 184.903 455 184.905C455 184.906 455 184.907 455 184.908C455 184.909 455 184.911 455 184.912C455 184.913 455 184.914 455 184.916C455 184.917 455 184.918 455 184.919C455 184.921 455 184.922 455 184.923C455 184.924 455 184.925 455 184.927C455 184.928 455 184.929 455 184.93C455 184.932 455 184.933 455 184.934C455 184.935 455 184.937 455 184.938C455 184.939 455 184.94 455 184.941C455 184.943 455 184.944 455 184.945C455 184.946 455 184.948 455 184.949C455 184.95 455 184.951 455 184.953C455 184.954 455 184.955 455 184.956C455 184.957 455 184.959 455 184.96C455 184.961 455 184.962 455 184.964C455 184.965 455 184.966 455 184.967C455 184.969 455 184.97 455 184.971C455 184.972 455 184.973 455 184.975C455 184.976 455 184.977 455 184.978C455 184.98 455 184.981 455 184.982C455 184.983 455 184.985 455 184.986C455 184.987 455 184.988 455 184.989C455 184.991 455 184.992 455 184.993C455 184.994 455 184.996 455 184.997C455 184.998 455 184.999 455 185.001C455 185.002 455 185.003 455 185.004C455 185.005 455 185.007 455 185.008C455 185.009 455 185.01 455 185.012C455 185.013 455 185.014 455 185.015C455 185.016 455 185.018 455 185.019C455 185.02 455 185.021 455 185.023C455 185.024 455 185.025 455 185.026C455 185.028 455 185.029 455 185.03C455 185.031 455 185.032 455 185.034C455 185.035 455 185.036 455 185.037C455 185.039 455 185.04 455 185.041C455 185.042 455 185.044 455 185.045C455 185.046 455 185.047 455 185.048C455 185.05 455 185.051 455 185.052C455 185.053 455 185.055 455 185.056C455 185.057 455 185.058 455 185.06C455 185.061 455 185.062 455 185.063C455 185.064 455 185.066 455 185.067C455 185.068 455 185.069 455 185.071C455 185.072 455 185.073 455 185.074C455 185.076 455 185.077 455 185.078C455 185.079 455 185.08 455 185.082C455 185.083 455 185.084 455 185.085C455 185.087 455 185.088 455 185.089C455 185.09 455 185.092 455 185.093C455 185.094 455 185.095 455 185.096C455 185.098 455 185.099 455 185.1C455 185.101 455 185.103 455 185.104C455 185.105 455 185.106 455 185.108C455 185.109 455 185.11 455 185.111C455 185.112 455 185.114 455 185.115C455 185.116 455 185.117 455 185.119C455 185.12 455 185.121 455 185.122C455 185.123 455 185.125 455 185.126C455 185.127 455 185.128 455 185.13C455 185.131 455 185.132 455 185.133C455 185.135 455 185.136 455 185.137C455 185.138 455 185.139 455 185.141C455 185.142 455 185.143 455 185.144C455 185.146 455 185.147 455 185.148C455 185.149 455 185.151 455 185.152C455 185.153 455 185.154 455 185.155C455 185.157 455 185.158 455 185.159C455 185.16 455 185.162 455 185.163C455 185.164 455 185.165 455 185.167C455 185.168 455 185.169 455 185.17C455 185.171 455 185.173 455 185.174C455 185.175 455 185.176 455 185.178C455 185.179 455 185.18 455 185.181C455 185.183 455 185.184 455 185.185C455 185.186 455 185.187 455 185.189C455 185.19 455 185.191 455 185.192C455 185.194 455 185.195 455 185.196C455 185.197 455 185.199 455 185.2C455 185.201 455 185.202 455 185.203C455 185.205 455 185.206 455 185.207C455 185.208 455 185.21 455 185.211C455 185.212 455 185.213 455 185.215C455 185.216 455 185.217 455 185.218C455 185.219 455 185.221 455 185.222C455 185.223 455 185.224 455 185.226C455 185.227 455 185.228 455 185.229C455 185.231 455 185.232 455 185.233C455 185.234 455 185.235 455 185.237C455 185.238 455 185.239 455 185.24C455 185.242 455 185.243 455 185.244C455 185.245 455 185.246 455 185.248C455 185.249 455 185.25 455 185.251C455 185.253 455 185.254 455 185.255C455 185.256 455 185.258 455 185.259C455 185.26 455 185.261 455 185.262C455 185.264 455 185.265 455 185.266C455 185.267 455 185.269 455 185.27C455 185.271 455 185.272 455 185.274C455 185.275 455 185.276 455 185.277C455 185.278 455 185.28 455 185.281C455 185.282 455 185.283 455 185.285C455 185.286 455 185.287 455 185.288C455 185.29 455 185.291 455 185.292C455 185.293 455 185.294 455 185.296C455 185.297 455 185.298 455 185.299C455 185.301 455 185.302 455 185.303C455 185.304 455 185.306 455 185.307C455 185.308 455 185.309 455 185.31C455 185.312 455 185.313 455 185.314C455 185.315 455 185.317 455 185.318C455 185.319 455 185.32 455 185.322C455 185.323 455 185.324 455 185.325C455 185.326 455 185.328 455 185.329C455 185.33 455 185.331 455 185.333C455 185.334 455 185.335 455 185.336C455 185.338 455 185.339 455 185.34C455 185.341 455 185.342 455 185.344C455 185.345 455 185.346 455 185.347C455 185.349 455 185.35 455 185.351C455 185.352 455 185.353 455 185.355C455 185.356 455 185.357 455 185.358C455 185.36 455 185.361 455 185.362C455 185.363 455 185.365 455 185.366C455 185.367 455 185.368 455 185.369C455 185.371 455 185.372 455 185.373C455 185.374 455 185.376 455 185.377C455 185.378 455 185.379 455 185.381C455 185.382 455 185.383 455 185.384C455 185.385 455 185.387 455 185.388C455 185.389 455 185.39 455 185.392C455 185.393 455 185.394 455 185.395C455 185.397 455 185.398 455 185.399C455 185.4 455 185.401 455 185.403C455 185.404 455 185.405 455 185.406C455 185.408 455 185.409 455 185.41C455 185.411 455 185.413 455 185.414C455 185.415 455 185.416 455 185.417C455 185.419 455 185.42 455 185.421C455 185.422 455 185.424 455 185.425C455 185.426 455 185.427 455 185.429C455 185.43 455 185.431 455 185.432C455 185.433 455 185.435 455 185.436C455 185.437 455 185.438 455 185.44C455 185.441 455 185.442 455 185.443C455 185.445 455 185.446 455 185.447C455 185.448 455 185.449 455 185.451C455 185.452 455 185.453 455 185.454C455 185.456 455 185.457 455 185.458C455 185.459 455 185.46 455 185.462C455 185.463 455 185.464 455 185.465H457ZM455 183.576L455 344.99H457L457 183.576H455ZM455 344.99C455 374.02 438.397 402.866 413.309 417.38L414.311 419.111C440.019 404.239 457 374.732 457 344.99H455ZM413.324 417.371L411.435 418.421L412.406 420.169L414.296 419.12L413.324 417.371ZM411.421 418.429L274.355 497.562L275.355 499.294L412.421 420.161L411.421 418.429ZM274.855 497.428H274.646V499.428H274.855V497.428ZM274.198 497.533L273.779 497.743L274.673 499.532L275.093 499.322L274.198 497.533ZM273.725 497.772C264.427 503.144 253.888 506.037 243.351 506.244L243.39 508.243C254.263 508.03 265.133 505.046 274.726 499.504L273.725 497.772ZM243.44 506.246C234.523 505.624 224.398 503.554 213.861 497.356L212.847 499.08C223.72 505.476 234.166 507.604 243.301 508.241L243.44 506.246ZM213.869 497.36C212.727 496.675 211.601 496.122 210.621 495.338L209.371 496.9C210.491 497.795 211.883 498.501 212.84 499.075L213.869 497.36ZM210.496 495.253L63.9852 410.663L62.9851 412.395L209.496 496.985L210.496 495.253ZM64.0037 410.674C44.5759 398.893 33.623 378.434 33.2097 357.355L31.21 357.394C31.6363 379.135 42.933 400.236 62.9666 412.384L64.0037 410.674ZM31.2397 357.132C30.9978 358.099 31 358.835 31 359.473H33C33 358.853 33.0021 358.329 33.18 357.617L31.2397 357.132Z" fill="url(#paint1_linear_404_42)" mask="url(#path-2-inside-1_404_42)"/>
<defs>
<linearGradient id="paint0_linear_404_42" x1="488.066" y1="271.778" x2="0.136826" y2="271.778" gradientUnits="userSpaceOnUse">
<stop stop-color="#6D1CC1"/>
<stop offset="1" stop-color="#D169E6"/>
</linearGradient>
<linearGradient id="paint1_linear_404_42" x1="456.057" y1="271.731" x2="32.1189" y2="271.731" gradientUnits="userSpaceOnUse">
<stop stop-color="#6D1CC1"/>
<stop offset="1" stop-color="#D169E6"/>
</linearGradient>
</defs>
</svg>
