<svg width="93" height="28" viewBox="0 0 93 28" fill="none" xmlns="http://www.w3.org/2000/svg">
<path fill-rule="evenodd" clip-rule="evenodd" d="M85.9191 8.29758C82.4582 8.29758 79.6529 10.8824 79.6529 15.1321C79.6529 19.3818 82.4582 21.9652 85.9191 21.9652C87.7789 21.9652 89.4484 21.2188 90.5961 19.87V21.6922H93V8.57061H90.5961V10.3928C89.4484 9.04395 87.7789 8.29758 85.9191 8.29758ZM79.198 8.57061H76.7213L72.9779 19.4086L69.2345 8.57061H66.7578L71.405 21.6922H72.19H73.7673H74.5523L79.198 8.57061ZM49.0994 21.6922H51.5048V6.03473H49.0994V21.6922ZM39.9521 6.03473C35.6512 6.03473 32.1636 9.04692 32.1636 14C32.1636 18.953 35.6498 21.9652 39.9521 21.9652C43.5929 21.9652 46.8115 20.06 47.3095 16.1382H44.7941C44.253 18.7141 42.2757 19.9116 39.9521 19.9116C37.0011 19.9116 34.6106 17.6754 34.6106 13.9985C34.6106 10.3215 37.0026 8.08539 39.9521 8.08539C42.2757 8.08539 44.253 9.28285 44.7941 11.8588H47.3095C46.8115 7.93998 43.5929 6.03473 39.9521 6.03473ZM63.893 13.9792H56.2948C56.6813 11.6614 58.2349 10.2919 60.0946 10.2919C61.953 10.2904 63.5065 11.66 63.893 13.9792ZM56.2487 15.9646H63.9376H65.1983H66.459C66.4842 15.6945 66.4976 15.417 66.4976 15.1321C66.4976 10.8824 63.6299 8.29758 60.0932 8.29758C56.5564 8.29758 53.6887 10.8824 53.6887 15.1321C53.6887 19.3818 56.5564 21.9652 60.0932 21.9652C62.9341 21.9652 65.3425 20.2974 66.181 17.438H63.5764C62.9386 19.0495 61.6185 19.9724 60.0932 19.9724C58.1501 19.9724 56.5401 18.4752 56.2487 15.9646ZM86.4885 10.2904C88.7497 10.2904 90.5827 12.1214 90.5827 15.1306C90.5827 18.1399 88.7497 19.9709 86.4885 19.9709C84.2273 19.9709 82.3943 18.1399 82.3943 15.1306C82.3943 12.1214 84.2273 10.2904 86.4885 10.2904Z" fill="white"/>
<path fill-rule="evenodd" clip-rule="evenodd" d="M25.1957 16.7629V8.89117H25.1943C25.1645 7.61656 24.503 6.38497 23.336 5.67866L23.3374 5.67718L14.5321 0.603943V0.605424C15.7704 1.31915 16.4617 2.61454 16.4632 3.94554V3.95296L16.8512 2.71099C19.3101 6.70251 18.6917 13.8769 13.4855 16.9113C12.9384 17.2303 15.2442 16.9454 14.7313 17.2378L15.0093 18.1919L16.4617 19.0287L16.4706 19.0124L16.4736 23.8779L25.1957 16.7629Z" fill="url(#paint0_linear_235_69)"/>
<path fill-rule="evenodd" clip-rule="evenodd" d="M18.6143 14.5713C15.2753 15.923 9.88322 18.1429 8.3267 21.6269C7.08982 24.3943 8.53781 26.166 10.7767 27.4584C11.4145 27.8397 12.0225 27.9659 12.5592 27.9985V27.997C13.2029 27.9822 13.8347 27.8071 14.3937 27.4881L14.413 27.4762L14.4234 27.4703L22.5717 22.7754L22.6832 22.7116C24.1996 21.8376 25.1986 20.1119 25.1986 18.3639V13.9881V12.4449V11.1213V8.7843C25.16 9.8126 24.8032 11.1184 22.9211 12.4019C21.6232 13.2907 20.0534 13.9896 18.6143 14.5713Z" fill="url(#paint1_linear_235_69)"/>
<path fill-rule="evenodd" clip-rule="evenodd" d="M0.00878906 11.2356V19.1074H0.0102772C0.04001 20.382 0.701566 21.6136 1.87007 22.3199L1.86858 22.3214L10.674 27.3946L10.6725 27.3931C9.43411 26.6794 8.74283 25.384 8.74134 24.053V24.0456L8.35332 25.2875C5.89441 21.296 6.51286 14.1217 11.7206 11.0872C12.2677 10.7682 9.96187 11.0531 10.4748 10.7608L10.1968 9.80667L8.74431 8.96979L8.73539 8.98611L8.73242 4.12061L0.00878906 11.2356Z" fill="url(#paint2_linear_235_69)"/>
<path fill-rule="evenodd" clip-rule="evenodd" d="M6.59021 13.4272C9.92921 12.0755 15.3213 9.85565 16.8778 6.3716C18.1147 3.60424 16.6667 1.83254 14.4278 0.540114C13.79 0.158768 13.182 0.0326444 12.6453 0V0.00148529C12.0016 0.0163237 11.3698 0.191415 10.8108 0.51044L10.7915 0.522309L10.7811 0.528246L2.63276 5.22311L2.52126 5.28691C1.00488 6.16089 0.00585938 7.88659 0.00585938 9.63455V14.0104V15.5536V16.8772V19.2142C0.0445121 18.1844 0.401306 16.8801 2.2834 15.5966C3.58124 14.7093 5.15113 14.0104 6.59021 13.4272Z" fill="url(#paint3_linear_235_69)"/>
<path fill-rule="evenodd" clip-rule="evenodd" d="M6.59021 13.4272C9.92921 12.0755 15.3213 9.85565 16.8778 6.3716C18.1147 3.60424 16.6667 1.83254 14.4278 0.540114C13.79 0.158768 13.182 0.0326444 12.6453 0V0.00148529C12.0016 0.0163237 11.3698 0.191415 10.8108 0.51044L10.7915 0.522309L10.7811 0.528246L2.63276 5.22311L2.52126 5.28691C1.00488 6.16089 0.00585938 7.88659 0.00585938 9.63455V14.0104V15.5536V16.8772V19.2142C0.0445121 18.1844 0.401306 16.8801 2.2834 15.5966C3.58124 14.7093 5.15113 14.0104 6.59021 13.4272Z" fill="url(#paint4_linear_235_69)"/>
<path fill-rule="evenodd" clip-rule="evenodd" d="M0.00297392 11.841V9.63455C0.00297392 7.88659 1.00051 6.16089 2.51838 5.28691L2.62987 5.22311L10.7782 0.528246L10.7886 0.522309L10.8079 0.51044C11.3669 0.191415 12.0002 0.0163237 12.6424 0.00148529V0C13.1806 0.0311606 13.7871 0.157284 14.4249 0.540114C15.0716 0.914041 15.6529 1.32803 16.1227 1.79396C11.4739 8.47419 0.19921 8.95644 0 14.1781V14.0119V11.841H0.00297392Z" fill="url(#paint5_linear_235_69)"/>
<path fill-rule="evenodd" clip-rule="evenodd" d="M16.2326 1.90229C15.7465 2.59672 15.1845 3.2318 14.5676 3.81198C13.6726 4.6548 12.6691 5.37743 11.6225 6.01845C9.39999 7.3821 7.01987 8.34807 4.70071 9.51288C3.72695 10.0025 2.50939 10.6436 1.58172 11.479C0.720957 12.2535 0.260097 13.0325 0.00439453 14.1766C0.202118 8.95645 11.4783 8.47271 16.1271 1.79248C16.1612 1.82958 16.1969 1.86519 16.2326 1.90229Z" fill="url(#paint6_linear_235_69)"/>
<path fill-rule="evenodd" clip-rule="evenodd" d="M18.6143 14.5713C15.2753 15.923 9.88322 18.1429 8.3267 21.6269C7.08982 24.3943 8.53781 26.166 10.7767 27.4584C11.4145 27.8397 12.0225 27.9659 12.5592 27.9985V27.997C13.2029 27.9822 13.8347 27.8071 14.3937 27.4881L14.413 27.4762L14.4234 27.4703L22.5717 22.7754L22.6832 22.7116C24.1996 21.8376 25.1986 20.1119 25.1986 18.3639V13.9881V12.4449V11.1213V8.7843C25.16 9.8126 24.8032 11.1184 22.9211 12.4019C21.6232 13.2907 20.0534 13.9896 18.6143 14.5713Z" fill="url(#paint7_linear_235_69)"/>
<path fill-rule="evenodd" clip-rule="evenodd" d="M25.2 16.159V18.3655C25.2 20.1134 24.2025 21.8391 22.6846 22.7131L22.5731 22.7769L14.4248 27.4718L14.4144 27.4777L14.3951 27.4896C13.8361 27.8086 13.2028 27.9837 12.5606 27.9985V28C12.0224 27.9674 11.4158 27.8427 10.7781 27.4599C10.1314 27.086 9.5501 26.672 9.08032 26.2061C13.7291 19.5258 25.0038 19.0436 25.203 13.822V13.9881V16.159H25.2Z" fill="url(#paint8_linear_235_69)"/>
<path fill-rule="evenodd" clip-rule="evenodd" d="M8.97192 26.0977C9.45806 25.4033 10.02 24.7682 10.637 24.188C11.5319 23.3452 12.5354 22.6226 13.582 21.9801C15.8045 20.6164 18.1847 19.6505 20.5038 18.4857C21.4776 17.996 22.6951 17.355 23.6228 16.5196C24.4836 15.745 24.9444 14.966 25.2001 13.822C25.0024 19.0421 13.7262 19.5258 9.07747 26.2061C9.04328 26.1705 9.0076 26.1334 8.97192 26.0977Z" fill="url(#paint9_linear_235_69)"/>
<defs>
<linearGradient id="paint0_linear_235_69" x1="19.3082" y1="13.0189" x2="13.1514" y2="5.57163" gradientUnits="userSpaceOnUse">
<stop offset="0.1032" stop-color="#601BDA"/>
<stop offset="0.2653" stop-color="#7152E4"/>
<stop offset="0.4498" stop-color="#818AEF"/>
<stop offset="0.6086" stop-color="#8EB4F7"/>
<stop offset="0.7335" stop-color="#95CDFB"/>
<stop offset="0.8089" stop-color="#98D6FD"/>
</linearGradient>
<linearGradient id="paint1_linear_235_69" x1="25.2032" y1="15.6284" x2="9.44567" y2="22.9902" gradientUnits="userSpaceOnUse">
<stop stop-color="#A374B2"/>
<stop offset="1" stop-color="#5D449B"/>
</linearGradient>
<linearGradient id="paint2_linear_235_69" x1="6.06462" y1="15.0192" x2="11.9025" y2="25.1498" gradientUnits="userSpaceOnUse">
<stop offset="0.1255" stop-color="#601BDA"/>
<stop offset="0.1747" stop-color="#652BDD"/>
<stop offset="0.5731" stop-color="#89A5F4"/>
<stop offset="0.7486" stop-color="#98D6FD"/>
</linearGradient>
<linearGradient id="paint3_linear_235_69" x1="-0.828623" y1="12.7569" x2="14.9289" y2="5.39508" gradientUnits="userSpaceOnUse">
<stop stop-color="#A374B2"/>
<stop offset="1" stop-color="#5D449B"/>
</linearGradient>
<linearGradient id="paint4_linear_235_69" x1="0.876215" y1="12.4812" x2="18.7008" y2="1.75081" gradientUnits="userSpaceOnUse">
<stop stop-color="#BD66EB"/>
<stop offset="0.9507" stop-color="#601CBD"/>
</linearGradient>
<linearGradient id="paint5_linear_235_69" x1="16.642" y1="-0.629592" x2="2.3965" y2="8.99733" gradientUnits="userSpaceOnUse">
<stop stop-color="#6D1CC1"/>
<stop offset="1" stop-color="#D169E6"/>
</linearGradient>
<linearGradient id="paint6_linear_235_69" x1="15.6534" y1="1.21364" x2="0.0985628" y2="14.2904" gradientUnits="userSpaceOnUse">
<stop stop-color="#924AE0"/>
<stop offset="1" stop-color="#D169E6"/>
</linearGradient>
<linearGradient id="paint7_linear_235_69" x1="8.97191" y1="25.4562" x2="25.6566" y2="14.6005" gradientUnits="userSpaceOnUse">
<stop stop-color="#3F93D3"/>
<stop offset="0.9088" stop-color="#A6E2C8"/>
</linearGradient>
<linearGradient id="paint8_linear_235_69" x1="10.877" y1="27.0703" x2="24.2248" y2="18.0501" gradientUnits="userSpaceOnUse">
<stop stop-color="#419BCD"/>
<stop offset="0.9307" stop-color="#C2E6CA"/>
</linearGradient>
<linearGradient id="paint9_linear_235_69" x1="8.37517" y1="25.0648" x2="22.7694" y2="16.7385" gradientUnits="userSpaceOnUse">
<stop stop-color="#3F93D3"/>
<stop offset="0.64" stop-color="#9CD8D8"/>
<stop offset="0.979" stop-color="#B0E6DE"/>
</linearGradient>
</defs>
</svg>
