<svg width="24" height="24" viewBox="0 0 24 24" fill="none" xmlns="http://www.w3.org/2000/svg">
<mask id="mask0_465_399" style="mask-type:alpha" maskUnits="userSpaceOnUse" x="0" y="0" width="24" height="24">
<rect width="24" height="24" fill="#D9D9D9"/>
</mask>
<g mask="url(#mask0_465_399)">
<path d="M7.23911 4.14288C7.98249 4.14288 8.46599 4.9252 8.13354 5.5901L6.07609 9.70499C5.90986 10.0374 6.15161 10.4286 6.5233 10.4286H8.92857C9.757 10.4286 10.4286 11.1002 10.4286 11.9286V18.3572C10.4286 19.1856 9.757 19.8572 8.92857 19.8572H2.5C1.67157 19.8572 1 19.1856 1 18.3572V11.6089C1 10.8327 1.18073 10.0671 1.52786 9.37287L3.72827 4.97206C3.98236 4.46389 4.50175 4.14288 5.06991 4.14288H7.23911ZM19.8105 4.14288C20.5539 4.14288 21.0374 4.9252 20.705 5.5901L18.6475 9.70499C18.4813 10.0374 18.723 10.4286 19.0947 10.4286H21.5C22.3284 10.4286 23 11.1002 23 11.9286V18.3572C23 19.1856 22.3284 19.8572 21.5 19.8572H15.0714C14.243 19.8572 13.5714 19.1856 13.5714 18.3572V11.6089C13.5714 10.8327 13.7522 10.0671 14.0993 9.37287L16.2997 4.97206C16.5538 4.46389 17.0732 4.14288 17.6413 4.14288H19.8105Z" fill="#6424D9"/>
</g>
</svg>
